<svg width="105" height="23" viewBox="0 0 105 23" fill="none" xmlns="http://www.w3.org/2000/svg">
<path d="M-0.00011308 18.5896V1.54326H8.39445C9.08036 1.54326 9.70391 1.60561 10.2651 1.73032C10.8419 1.85503 11.3563 2.0421 11.8084 2.29152C12.2605 2.54094 12.6424 2.85272 12.9542 3.22685C13.2659 3.60098 13.5076 4.03746 13.6791 4.53631C13.8505 5.01956 13.9363 5.56516 13.9363 6.17313C13.9363 7.23317 13.6557 8.12952 13.0945 8.86219C12.5489 9.57928 11.785 10.0703 10.8029 10.3353V10.4756C11.4732 10.5848 12.0111 10.7874 12.4164 11.0836C12.8217 11.3642 13.1179 11.7305 13.3049 12.1826C13.492 12.6347 13.5855 13.1803 13.5855 13.8194V16.6956C13.5855 16.9917 13.5933 17.3035 13.6089 17.6309C13.6401 17.9427 13.7258 18.2622 13.8661 18.5896H10.7328C10.6392 18.3714 10.5691 18.0986 10.5223 17.7712C10.4911 17.4438 10.4756 17.0775 10.4756 16.6722V14.3572C10.4756 13.8272 10.3976 13.3907 10.2417 13.0478C10.0858 12.6892 9.80524 12.4164 9.39993 12.2294C8.99462 12.0267 8.41004 11.9254 7.64619 11.9254H2.78249V9.47016H7.69296C8.79976 9.47016 9.58699 9.21294 10.0547 8.69851C10.5223 8.16849 10.7562 7.51376 10.7562 6.73432C10.7562 6.25107 10.6782 5.85356 10.5223 5.54178C10.382 5.21442 10.1716 4.94941 9.89097 4.74675C9.62596 4.52851 9.30639 4.37262 8.93226 4.27909C8.55813 4.16997 8.14503 4.11541 7.69296 4.11541H3.08647V18.5896H-0.00011308ZM19.7289 18.8C18.965 18.8 18.2713 18.6597 17.6478 18.3792C17.0242 18.083 16.4864 17.6621 16.0344 17.1165C15.5823 16.5553 15.2315 15.8772 14.9821 15.0821C14.7483 14.2715 14.6314 13.3674 14.6314 12.3697C14.6314 11.0134 14.8418 9.85208 15.2627 8.88558C15.6992 7.91907 16.2994 7.1864 17.0632 6.68756C17.8271 6.17313 18.7156 5.91591 19.7289 5.91591C20.3836 5.91591 20.976 6.01724 21.506 6.21989C22.0516 6.42255 22.5115 6.71094 22.8856 7.08507C23.2753 7.4592 23.5637 7.89569 23.7508 8.39453H23.9145L24.0314 6.14975H26.7906V18.5896H24.0314L23.9145 16.3214H23.7508C23.4858 17.0697 22.9948 17.6699 22.2777 18.1219C21.5606 18.574 20.711 18.8 19.7289 18.8ZM20.7578 16.415C21.4437 16.415 22.0127 16.2669 22.4647 15.9707C22.9324 15.6589 23.2831 15.2458 23.517 14.7314C23.7508 14.2169 23.8677 13.648 23.8677 13.0244V11.6916C23.8677 11.0524 23.743 10.4756 23.4936 9.9612C23.2598 9.44677 22.909 9.04147 22.4413 8.74528C21.9893 8.44909 21.4515 8.301 20.8279 8.301C20.1264 8.301 19.534 8.46468 19.0508 8.79204C18.5831 9.10382 18.2246 9.56369 17.9752 10.1717C17.7257 10.7796 17.601 11.5123 17.601 12.3697C17.601 13.1959 17.7179 13.913 17.9518 14.5209C18.2012 15.1289 18.5597 15.5966 19.0274 15.9239C19.4951 16.2513 20.0719 16.415 20.7578 16.415ZM28.5199 22.4946V6.14975H31.3025L31.4194 8.41791H31.5831C31.8481 7.66965 32.3391 7.06948 33.0562 6.61741C33.7733 6.14974 34.6229 5.91591 35.605 5.91591C36.3688 5.91591 37.0625 6.06401 37.6861 6.36019C38.3096 6.65638 38.8475 7.08507 39.2995 7.64627C39.7516 8.19188 40.0946 8.86219 40.3284 9.65722C40.5778 10.4523 40.7025 11.3564 40.7025 12.3697C40.7025 13.7103 40.4843 14.8639 40.0478 15.8304C39.6269 16.7969 39.0345 17.5374 38.2707 18.0518C37.5068 18.5662 36.6183 18.8234 35.605 18.8234C34.9503 18.8234 34.3501 18.7221 33.8045 18.5195C33.2589 18.3012 32.7912 18.005 32.4015 17.6309C32.0274 17.2568 31.7546 16.8281 31.5831 16.3448H31.4428V22.4946H28.5199ZM34.506 16.4383C35.1919 16.4383 35.7765 16.2747 36.2597 15.9473C36.743 15.6199 37.1015 15.1523 37.3353 14.5443C37.5848 13.9208 37.7095 13.1959 37.7095 12.3697C37.7095 11.5279 37.5926 10.803 37.3587 10.195C37.1249 9.58707 36.7741 9.11941 36.3065 8.79204C35.8388 8.46468 35.262 8.301 34.5761 8.301C33.8902 8.301 33.3134 8.45689 32.8458 8.76866C32.3781 9.06485 32.0274 9.47795 31.7935 10.008C31.5597 10.5224 31.4428 11.0914 31.4428 11.7149V13.0478C31.4428 13.6869 31.5675 14.2637 31.8169 14.7781C32.0663 15.277 32.4171 15.6823 32.8692 15.9941C33.3212 16.2903 33.8668 16.4383 34.506 16.4383ZM41.7771 18.5896V6.14975H44.6999V18.5896H41.7771ZM43.2502 4.46616C42.7825 4.46616 42.3928 4.34145 42.081 4.09203C41.7848 3.82702 41.6368 3.47627 41.6368 3.03978C41.6368 2.58771 41.7848 2.23696 42.081 1.98754C42.3928 1.73812 42.7825 1.61341 43.2502 1.61341C43.7179 1.61341 44.0998 1.73812 44.396 1.98754C44.7077 2.23696 44.8636 2.58771 44.8636 3.03978C44.8636 3.47627 44.7077 3.82702 44.396 4.09203C44.0998 4.34145 43.7179 4.46616 43.2502 4.46616ZM50.1842 18.2389C50.3089 18.3012 50.4414 18.3558 50.5817 18.4025C50.722 18.4337 50.9169 18.4493 51.1663 18.4493C51.7587 18.4493 52.2497 18.2622 52.6395 17.8881C53.0448 17.4984 53.2474 16.9606 53.2474 16.2747C53.2474 15.7758 53.1383 15.2692 52.9201 14.7548C52.7174 14.2403 52.4056 13.6713 51.9847 13.0478C51.6106 12.5022 51.2676 11.9644 50.9559 11.4343C50.6597 10.9043 50.5116 10.2964 50.5116 9.61046C50.5116 8.94014 50.6753 8.35556 51.0026 7.85672C51.33 7.34229 51.7977 6.93698 52.4056 6.64079C53.0136 6.3446 53.7229 6.19651 54.5335 6.19651C55.0635 6.19651 55.5857 6.25887 56.1002 6.38358C56.6146 6.50829 57.0355 6.73432 57.3629 7.06169C57.6902 7.38905 57.8539 7.86451 57.8539 8.48806C57.8539 8.70631 57.8071 8.94014 57.7136 9.18956C57.6201 9.42339 57.4798 9.62605 57.2927 9.79752C57.1056 9.969 56.8562 10.0547 56.5444 10.0547C56.2171 10.0547 55.9443 9.93003 55.726 9.68061C55.5078 9.4156 55.3987 9.08044 55.3987 8.67513C55.3987 8.31659 55.461 7.98143 55.5857 7.66965C55.726 7.35788 55.8897 7.08507 56.0768 6.85124C55.8585 6.72653 55.5468 6.66417 55.1415 6.66417C54.5803 6.66417 54.1282 6.84345 53.7852 7.20199C53.4423 7.56053 53.2708 8.06717 53.2708 8.7219C53.2708 9.06485 53.3254 9.39221 53.4345 9.70399C53.5592 10.0002 53.7229 10.312 53.9255 10.6393C54.1438 10.9511 54.3854 11.3174 54.6504 11.7383C55.0869 12.4398 55.4298 13.0712 55.6793 13.6324C55.9287 14.178 56.0534 14.7392 56.0534 15.316C56.0534 16.0019 55.8663 16.6176 55.4922 17.1632C55.1337 17.7088 54.6348 18.1375 53.9957 18.4493C53.3565 18.7611 52.6083 18.917 51.7509 18.917C51.1429 18.917 50.5584 18.8312 49.9972 18.6597C49.4515 18.5039 48.9995 18.2389 48.6409 17.8647C48.298 17.4906 48.1265 16.9762 48.1265 16.3214C48.1265 15.9629 48.2278 15.6355 48.4305 15.3393C48.6175 15.0276 48.9137 14.8717 49.319 14.8717C49.7244 14.8717 50.0283 15.0354 50.231 15.3627C50.4336 15.6901 50.535 16.0954 50.535 16.5786C50.535 16.9216 50.4882 17.2412 50.3947 17.5374C50.3167 17.818 50.2466 18.0518 50.1842 18.2389ZM65.8796 6.52388L65.8095 6.99154H57.9761L58.093 6.52388H65.8796ZM60.1975 16.602C60.0728 17.0385 60.0884 17.3581 60.2443 17.5607C60.4158 17.7634 60.6418 17.8647 60.9224 17.8647C61.2498 17.8647 61.5771 17.7088 61.9045 17.3971C62.2474 17.0853 62.5592 16.5397 62.8398 15.7602L63.1906 14.8015H63.6349L63.1672 16.2045C62.8398 17.171 62.3877 17.8647 61.811 18.2856C61.2342 18.7065 60.5483 18.917 59.7532 18.917C59.0517 18.917 58.5139 18.7611 58.1398 18.4493C57.7813 18.1375 57.563 17.7166 57.4851 17.1866C57.4227 16.641 57.4929 16.0252 57.6955 15.3393L61.2264 3.0164C61.7876 3.00081 62.3098 2.96963 62.7931 2.92287C63.2919 2.8761 63.7596 2.79816 64.196 2.68903L60.1975 16.602ZM72.6527 10.4289C72.0604 12.0969 71.5069 13.4765 70.9925 14.5677C70.4781 15.6589 69.9637 16.5241 69.4492 17.1632C68.9504 17.8024 68.436 18.2544 67.9059 18.5195C67.3759 18.7845 66.8147 18.917 66.2223 18.917C65.5676 18.917 65.0688 18.7689 64.7258 18.4727C64.3985 18.1765 64.2192 17.7712 64.188 17.2568C64.1568 16.7267 64.2582 16.1032 64.492 15.3861L66.7602 8.51145C66.9161 8.04378 66.955 7.71642 66.8771 7.52935C66.7991 7.34229 66.6432 7.24875 66.4094 7.24875C66.1756 7.24875 65.9262 7.38126 65.6612 7.64627C65.4117 7.91128 65.1389 8.44909 64.8427 9.25971L64.4686 10.312H64.0243L64.6089 8.60498C64.8427 7.95025 65.1233 7.45141 65.4507 7.10846C65.7937 6.7655 66.1522 6.53167 66.5263 6.40696C66.916 6.26666 67.2902 6.19651 67.6487 6.19651C68.3346 6.19651 68.8257 6.3524 69.1219 6.66417C69.4336 6.96036 69.5895 7.38126 69.5895 7.92687C69.6051 8.45689 69.4882 9.07264 69.2388 9.77414L67.1109 16.2045C66.7368 17.3269 66.8459 17.8881 67.4383 17.8881C67.7656 17.8881 68.1242 17.7088 68.5139 17.3503C68.9036 16.9762 69.3011 16.4539 69.7064 15.7836C70.1273 15.0977 70.5404 14.3027 70.9458 13.3985C71.3666 12.4944 71.7642 11.5123 72.1383 10.4523C72.528 9.39221 72.8788 8.27761 73.1905 7.10846L72.6527 10.4289ZM73.3776 16.602C73.2685 16.9917 73.2217 17.3035 73.2373 17.5374C73.2529 17.7556 73.3932 17.8647 73.6582 17.8647C73.9544 17.8647 74.2272 17.7166 74.4766 17.4204C74.7416 17.1087 75.0066 16.5864 75.2716 15.8538L75.6692 14.7548H76.1134L75.5055 16.5085C75.2872 17.132 75.0066 17.6231 74.6637 17.9816C74.3363 18.3246 73.9778 18.5662 73.5881 18.7065C73.2139 18.8468 72.8398 18.917 72.4657 18.917C72.0915 18.917 71.772 18.8468 71.5069 18.7065C71.2419 18.5818 71.0471 18.4025 70.9224 18.1687C70.7665 17.8881 70.6963 17.5452 70.7119 17.1398C70.7431 16.7345 70.8366 16.2357 70.9925 15.6433L73.3308 6.52388C73.892 6.50829 74.4221 6.47711 74.9209 6.43034C75.4197 6.38358 75.8796 6.30563 76.3005 6.19651L73.3776 16.602ZM85.2075 16.602C85.0984 16.9762 85.0672 17.2801 85.1139 17.514C85.1607 17.7478 85.3166 17.8647 85.5816 17.8647C85.831 17.8647 86.0727 17.7322 86.3065 17.4672C86.5559 17.1866 86.8209 16.6488 87.1015 15.8538L87.4756 14.8015H87.9199L87.3587 16.5085C87.1561 17.1476 86.8833 17.6387 86.5403 17.9816C86.213 18.3246 85.8622 18.5662 85.4881 18.7065C85.1139 18.8468 84.7476 18.917 84.3891 18.917C83.4226 18.917 82.8458 18.535 82.6587 17.7712C82.5652 17.4906 82.534 17.1476 82.5652 16.7423C82.5964 16.337 82.6899 15.8694 82.8458 15.3393L86.1194 2.99301C86.2597 2.463 86.2363 2.07328 86.0493 1.82386C85.8622 1.57444 85.3868 1.44972 84.6229 1.44972L84.7866 0.958678C85.8154 0.943089 86.7274 0.85735 87.5224 0.701462C88.3174 0.529986 89.0735 0.296155 89.7906 -3.24051e-05L85.2075 16.602ZM79.7358 17.8881C80.0476 17.8881 80.4061 17.701 80.8114 17.3269C81.2167 16.9372 81.6299 16.3916 82.0507 15.6901C82.4872 14.973 82.9003 14.1156 83.2901 13.1179C83.6954 12.1203 84.0383 11.0134 84.3189 9.79752L83.9682 12.3229C83.4226 13.8662 82.877 15.1211 82.3313 16.0876C81.8013 17.0541 81.2323 17.7712 80.6244 18.2389C80.0164 18.6909 79.3305 18.917 78.5667 18.917C78.0678 18.917 77.6157 18.8078 77.2104 18.5896C76.8051 18.3558 76.4856 18.005 76.2517 17.5374C76.0179 17.0541 75.901 16.4383 75.901 15.6901C75.901 14.973 76.0179 14.1936 76.2517 13.3518C76.4856 12.4944 76.8207 11.6448 77.2572 10.803C77.6937 9.9612 78.2315 9.19735 78.8706 8.51145C79.5098 7.80995 80.2191 7.24875 80.9985 6.82786C81.7935 6.40696 82.6587 6.19651 83.594 6.19651C84.0617 6.19651 84.428 6.32122 84.693 6.57064C84.9581 6.80447 85.1062 7.14743 85.1373 7.5995L84.9503 8.06717C84.8879 7.5995 84.7632 7.26434 84.5761 7.06169C84.3891 6.84345 84.1396 6.73432 83.8279 6.73432C83.3602 6.73432 82.8847 6.92139 82.4015 7.29552C81.9338 7.66965 81.4896 8.18408 81.0687 8.83881C80.6478 9.47795 80.2736 10.2028 79.9463 11.0134C79.6189 11.8241 79.3617 12.6737 79.1746 13.5622C78.9876 14.4352 78.894 15.2926 78.894 16.1344C78.894 16.7267 78.9564 17.171 79.0811 17.4672C79.2214 17.7478 79.4396 17.8881 79.7358 17.8881ZM91.811 2.50197C91.8578 1.92518 92.0916 1.46531 92.5125 1.12236C92.9334 0.779406 93.4245 0.60793 93.9857 0.60793C94.5001 0.60793 94.8898 0.756023 95.1548 1.05221C95.4354 1.33281 95.5523 1.69915 95.5056 2.15122C95.4588 2.68124 95.225 3.12552 94.8041 3.48406C94.3832 3.8426 93.8921 4.02188 93.3309 4.02188C92.8165 4.02188 92.419 3.88158 92.1384 3.60098C91.8734 3.30479 91.7643 2.93845 91.811 2.50197ZM90.9926 8.51145C91.2732 7.66965 91.1797 7.24875 90.712 7.24875C90.4003 7.24875 90.1197 7.41244 89.8702 7.7398C89.6208 8.05158 89.3558 8.55821 89.0752 9.25971L88.6777 10.3587H88.2334L88.8414 8.60498C89.0752 7.98143 89.3558 7.49818 89.6832 7.15522C90.0105 6.79668 90.3769 6.54726 90.7822 6.40696C91.1875 6.26666 91.585 6.19651 91.9747 6.19651C92.5203 6.19651 92.9334 6.29784 93.214 6.50049C93.4946 6.70315 93.6817 6.96816 93.7752 7.29552C93.8688 7.62289 93.8921 7.98143 93.8454 8.37115C93.7986 8.74528 93.7129 9.11162 93.5882 9.47016L91.1095 16.602C90.9692 17.0229 90.9303 17.3425 90.9926 17.5607C91.055 17.7634 91.2031 17.8647 91.4369 17.8647C91.6863 17.8647 91.9357 17.7322 92.1852 17.4672C92.4502 17.1866 92.7308 16.6488 93.027 15.8538L93.4245 14.8015H93.8688L93.2842 16.5085C93.0503 17.132 92.7697 17.6231 92.4424 17.9816C92.115 18.3246 91.7565 18.5662 91.3668 18.7065C90.977 18.8468 90.5951 18.917 90.221 18.917C89.5351 18.917 89.0362 18.7689 88.7245 18.4727C88.4127 18.1609 88.2568 17.74 88.2568 17.21C88.2568 16.6644 88.3815 16.0408 88.6309 15.3393L90.9926 8.51145ZM101.104 6.66417C100.698 6.66417 100.285 6.87462 99.8644 7.29552C99.4435 7.70083 99.0459 8.26203 98.6718 8.97911C98.2977 9.68061 97.9547 10.4678 97.643 11.3408C97.3468 12.2138 97.1129 13.1179 96.9415 14.0533C96.77 14.973 96.6842 15.8538 96.6842 16.6956C96.6842 17.3191 96.7622 17.7712 96.9181 18.0518C97.0896 18.3168 97.339 18.4493 97.6663 18.4493C98.0561 18.4493 98.4614 18.2466 98.8823 17.8413C99.3032 17.436 99.7007 16.8904 100.075 16.2045C100.465 15.503 100.807 14.7236 101.104 13.8662C101.4 12.9932 101.634 12.0891 101.805 11.1537C101.977 10.2184 102.062 9.30647 102.062 8.41791C102.062 7.76318 101.977 7.31111 101.805 7.06169C101.649 6.79668 101.415 6.66417 101.104 6.66417ZM93.925 15.1289C93.925 14.4274 94.0186 13.6713 94.2056 12.8607C94.4083 12.0501 94.7045 11.2551 95.0942 10.4756C95.4839 9.68061 95.9672 8.96352 96.5439 8.32438C97.1363 7.66965 97.8222 7.15522 98.6017 6.78109C99.3811 6.39137 100.262 6.19651 101.244 6.19651C102.366 6.19651 103.239 6.51608 103.863 7.15522C104.502 7.77877 104.822 8.7219 104.822 9.98459C104.822 10.6861 104.72 11.4421 104.518 12.2528C104.331 13.0634 104.042 13.8662 103.652 14.6612C103.263 15.4407 102.772 16.1577 102.179 16.8125C101.603 17.4516 100.924 17.966 100.145 18.3558C99.3655 18.7299 98.4847 18.917 97.5027 18.917C96.3803 18.917 95.4995 18.5974 94.8604 17.9583C94.2368 17.3191 93.925 16.376 93.925 15.1289Z" fill="#7B6DED"/>
</svg>
