<svg width="31" height="33" viewBox="0 0 31 33" fill="none" xmlns="http://www.w3.org/2000/svg">
<path d="M20.5 12C20.5 10.8 14.5 10.5 11.5 10.5L11 17.5H16C18.5 17.5 19.5 16.5 20 16C20.5 15.5 20.5 13.5 20.5 12Z" fill="#7B6DED"/>
<circle cx="15.5" cy="17.5" r="15.5" fill="#303030"/>
<path d="M8.73036 26V8.95366H17.1249C17.8108 8.95366 18.4344 9.01601 18.9956 9.14072C19.5724 9.26543 20.0868 9.4525 20.5389 9.70192C20.9909 9.95134 21.3729 10.2631 21.6846 10.6372C21.9964 11.0114 22.238 11.4479 22.4095 11.9467C22.581 12.43 22.6667 12.9756 22.6667 13.5835C22.6667 14.6436 22.3861 15.5399 21.8249 16.2726C21.2793 16.9897 20.5155 17.4807 19.5334 17.7457V17.886C20.2037 17.9952 20.7415 18.1978 21.1468 18.494C21.5521 18.7746 21.8483 19.1409 22.0354 19.593C22.2225 20.0451 22.316 20.5907 22.316 21.2298V24.106C22.316 24.4021 22.3238 24.7139 22.3394 25.0413C22.3705 25.3531 22.4563 25.6726 22.5966 26H19.4632C19.3697 25.7818 19.2996 25.509 19.2528 25.1816C19.2216 24.8542 19.206 24.4879 19.206 24.0826V21.7676C19.206 21.2376 19.1281 20.8011 18.9722 20.4582C18.8163 20.0996 18.5357 19.8268 18.1304 19.6398C17.7251 19.4371 17.1405 19.3358 16.3767 19.3358H11.513V16.8806H16.4234C17.5302 16.8806 18.3175 16.6233 18.7851 16.1089C19.2528 15.5789 19.4866 14.9242 19.4866 14.1447C19.4866 13.6615 19.4087 13.264 19.2528 12.9522C19.1125 12.6248 18.902 12.3598 18.6214 12.1572C18.3564 11.9389 18.0369 11.783 17.6627 11.6895C17.2886 11.5804 16.8755 11.5258 16.4234 11.5258H11.8169V26H8.73036Z" fill="#7B6DED"/>
<path d="M11.29 25.5022C11.4671 25.5907 11.6551 25.6681 11.8543 25.7345C12.0534 25.7787 12.33 25.8009 12.684 25.8009C13.5248 25.8009 14.2217 25.5354 14.7749 25.0043C15.3502 24.4512 15.6378 23.6878 15.6378 22.7143C15.6378 22.0063 15.4829 21.2872 15.1732 20.557C14.8855 19.8268 14.443 19.0192 13.8456 18.1342C13.3146 17.3598 12.8278 16.5964 12.3853 15.8442C11.9649 15.0919 11.7547 14.229 11.7547 13.2554C11.7547 12.304 11.987 11.4743 12.4517 10.7662C12.9163 10.0361 13.5801 9.4608 14.443 9.0404C15.3059 8.62001 16.3127 8.40981 17.4632 8.40981C18.2155 8.40981 18.9567 8.49832 19.6869 8.67532C20.417 8.85233 21.0144 9.17316 21.4791 9.63781C21.9437 10.1025 22.176 10.7773 22.176 11.6623C22.176 11.9721 22.1097 12.304 21.9769 12.658C21.8442 12.9899 21.645 13.2775 21.3795 13.5209C21.114 13.7643 20.76 13.886 20.3175 13.886C19.8528 13.886 19.4656 13.709 19.1558 13.355C18.8461 12.9788 18.6912 12.5031 18.6912 11.9278C18.6912 11.419 18.7797 10.9432 18.9567 10.5007C19.1558 10.0582 19.3882 9.67099 19.6537 9.3391C19.3439 9.1621 18.9014 9.07359 18.3261 9.07359C17.5296 9.07359 16.8879 9.32804 16.4012 9.83694C15.9144 10.3458 15.671 11.0649 15.671 11.9942C15.671 12.481 15.7484 12.9456 15.9033 13.3882C16.0803 13.8086 16.3127 14.2511 16.6003 14.7157C16.9101 15.1582 17.253 15.6782 17.6291 16.2756C18.2487 17.2713 18.7355 18.1674 19.0895 18.9639C19.4435 19.7383 19.6205 20.5349 19.6205 21.3535C19.6205 22.3271 19.355 23.2011 18.824 23.9755C18.3151 24.7499 17.607 25.3583 16.6999 25.8009C15.7927 26.2434 14.7306 26.4646 13.5137 26.4646C12.6508 26.4646 11.8211 26.343 11.0245 26.0996C10.2501 25.8783 9.60847 25.5022 9.09957 24.9711C8.61279 24.4401 8.36941 23.71 8.36941 22.7807C8.36941 22.2718 8.51323 21.8071 8.80087 21.3867C9.06638 20.9442 9.48677 20.7229 10.062 20.7229C10.6373 20.7229 11.0688 20.9553 11.3564 21.4199C11.6441 21.8846 11.7879 22.4598 11.7879 23.1457C11.7879 23.6325 11.7215 24.0861 11.5887 24.5065C11.4781 24.9048 11.3785 25.2367 11.29 25.5022Z" fill="#F5F5F5"/>
</svg>
